# xmcd
#
# Track frame offsets:
#	150
#	21859
#	38908
#	57926
#	79643
#	96703
#	114687
#	132826
#	147959
#	166798
#	182339
#	201263
#	216141
#	238072
#	256721
#	284095
#
# Disc length: 3802 seconds
#
# Revision: 1
# Processed by: cddbd v1.5.1PL2 Copyright (c) Steve Scherf et al.
# Submitted via: audiograbber 1.83.01
#
DISCID=e80ed810
DTITLE=Various Artist - Cb60336
DYEAR=1900
DGENRE=Karaoke
TTITLE0=Chesney, Kenny - Guitars And Tiki Bars
TTITLE1=Keith, Toby - Honky Tonk U
TTITLE2=Twain, Shania - Don't
TTITLE3=McGraw, Tim - Drugs Or Jesus
TTITLE4=Shedaisy - Don't Worry 'Bout A Thing
TTITLE5=Bentley, Dierks - Lot Of Leavin' Left To Do
TTITLE6=Tritt, Travis - I See Me
TTITLE7=Fairchild, Shelly - Tiny Town
TTITLE8=Big and Rich - Big Time
TTITLE9=Roberts, Julie - Wake Up Older
TTITLE10=Lonestar - Class Reunion (That Used To Be Us)
TTITLE11=Wrights, The - Down This Road
TTITLE12=Worley, Darryl - If Something Should Happen
TTITLE13=Elam, Katrina - I Want A Cowboy
TTITLE14=Shelton, Blake - Goodye Time
TTITLE15=Data Track - Data Track
EXTD=
EXTT0=
EXTT1=
EXTT2=
EXTT3=
EXTT4=
EXTT5=
EXTT6=
EXTT7=
EXTT8=
EXTT9=
EXTT10=
EXTT11=
EXTT12=
EXTT13=
EXTT14=
EXTT15=
PLAYORDER=
